<?xml version="1.0"?>
<svg xmlns="http://www.w3.org/2000/svg" xmlns:xlink="http://www.w3.org/1999/xlink" xmlns:svgjs="http://svgjs.com/svgjs" version="1.1" width="512" height="512" x="0" y="0" viewBox="0 0 512 512" style="enable-background:new 0 0 512 512" xml:space="preserve" class=""><circle r="256" cx="256" cy="256" fill="#a3cdd9" shape="circle"/><g transform="matrix(0.7,0,0,0.7,76.79983481634119,76.80015106201174)"><g xmlns="http://www.w3.org/2000/svg"><path d="m446.528 445.6h-13.283c-1.858 0-2.77-2.27-1.42-3.546 50.11-47.361 81.093-114.749 80.153-189.356-1.777-141.075-118.519-254.625-259.593-252.673-139.707 1.934-252.371 115.786-252.385 255.95-.014 141.383 113.418 255.374 254.799 256.023 22.749.104 44.811-2.762 65.823-8.229 6.772-1.762 11.469-7.922 11.469-14.92 0-10.042-9.46-17.489-19.179-14.968-18.05 4.683-36.809 7.131-55.931 7.212-59.122.251-116.243-22.894-158.471-64.273-43.576-42.7-67.607-99.918-67.605-160.827.002-59.728 23.698-116.922 65.932-159.156 42.603-42.603 99.273-66.027 159.532-65.931 59.62.095 116.637 23.774 158.794 65.932 43.041 43.042 66.508 100.442 65.921 161.395-.574 59.631-24.974 116.805-67.558 158.551-2.641 2.588-5.336 5.101-8.08 7.541-1.333 1.185-3.441.247-3.441-1.536v-21.712c0-8.321-6.394-15.48-14.706-15.872-8.874-.418-16.2 6.653-16.2 15.435v50.11c0 14.224 11.531 25.755 25.755 25.755h50.111c8.782 0 15.853-7.326 15.435-16.2-.392-8.311-7.551-14.705-15.872-14.705z" fill="#fffce6" data-original="#c9f6b0" style="" class=""/><g fill="#9be69d"><path d="m246.742 31.105c-2.903-.117-5.812-.195-8.729-.199-60.26-.096-116.93 23.328-159.532 65.93-42.235 42.234-65.93 99.428-65.932 159.156-.002 60.908 24.029 118.127 67.605 160.827 42.228 41.38 99.349 64.524 158.471 64.273 2.751-.012 5.49-.087 8.225-.196-55.481-2.273-108.529-25.067-148.339-64.078-43.576-42.7-67.607-99.919-67.605-160.827.002-59.728 23.698-116.922 65.932-159.156 40.325-40.324 93.257-63.453 149.904-65.73z" fill="#fffce6" data-original="#9be69d" style="" class=""/><path d="m420.378 449.191c1.836 1.896 4.345 3.005 6.983 3.045 7.696.117 16.351 1.038 16.682 8.069.418 8.874-6.653 16.2-15.435 16.2h18.357c8.782 0 15.853-7.326 15.435-16.2-.392-8.311-7.551-14.705-15.872-14.705h-13.283c-1.858 0-2.77-2.27-1.42-3.546 50.11-47.361 81.094-114.749 80.153-189.355-1.777-141.076-118.519-254.626-259.593-252.674-1.841.025-3.675.081-5.507.145 135.244 4.865 245.02 115.76 246.744 252.528.896 71.103-27.204 135.65-73.222 182.552-3.79 3.864-3.787 10.052-.022 13.941z" fill="#fffce6" data-original="#9be69d" style="" class=""/></g><g><path d="m212.671 318.776-51.017-135.184c-2.845-7.541-10.123-12.505-18.174-12.505-.006 0-.014 0-.02 0-7.929.007-14.992 4.756-17.993 12.095-.05.122-.099.246-.146.369l-51.484 135.178c-3.214 8.441 1.022 17.889 9.462 21.103 8.238 3.138 17.862-.915 21.103-9.462l8.81-23.133h60.145l8.713 23.086c3.19 8.448 12.621 12.718 21.074 9.527 8.45-3.19 12.715-12.625 9.527-21.074zm-87.003-44.246 17.753-46.615 17.592 46.615z" fill="#fffce6" data-original="#c9f6b0" style="" class=""/><g fill="#9be69d"><path d="m125.669 274.53 17.753-46.615h-.953c-8.73 0-16.553 5.391-19.66 13.55l-7.093 18.624c-2.655 6.971 2.493 14.441 9.953 14.441z" fill="#fffce6" data-original="#9be69d" style="" class=""/><path d="m212.671 318.776-51.017-135.184c-2.845-7.541-10.123-12.505-18.174-12.505-.007 0-.014 0-.02 0-2.719.003-5.33.574-7.716 1.605 4.723 2.037 8.57 5.895 10.458 10.9l51.017 135.184c2.931 7.767-.447 16.354-7.574 20.17 4.016 2.154 8.899 2.641 13.501.904 8.448-3.19 12.713-12.625 9.525-21.074z" fill="#fffce6" data-original="#9be69d" style="" class=""/><path d="m88.949 330.37c-1.462 3.856-4.229 6.786-7.577 8.565.618.332 1.254.641 1.927.897 8.238 3.138 17.862-.915 21.103-9.462l8.81-23.133c-9.304 0-17.641 5.746-20.953 14.441z" fill="#fffce6" data-original="#9be69d" style="" class=""/></g><g><g><path d="m276.217 340.913c-14.995 0-15.908-.158-17.094-.361-7.852-1.345-13.592-8.152-13.592-16.118v-136.994c0-9.032 7.322-16.353 16.353-16.353 9.032 0 16.353 7.322 16.353 16.353v120.755c9.005-.009 20.681-.053 31.567-.114h.094c8.989 0 16.301 7.261 16.351 16.262.05 9.032-7.23 16.394-16.262 16.445-15.74.087-26.439.125-33.77.125z" fill="#fffce6" data-original="#c9f6b0" style="" class=""/></g></g><g><g><path d="m389.213 340.913c-15.003 0-15.917-.158-17.103-.361-7.851-1.346-13.59-8.153-13.59-16.118v-136.994c0-9.032 7.322-16.353 16.353-16.353s16.353 7.322 16.353 16.353v120.755c9.004-.009 20.681-.053 31.566-.114h.094c8.989 0 16.301 7.261 16.351 16.262.05 9.032-7.23 16.394-16.262 16.445-15.733.087-26.43.125-33.762.125z" fill="#fffce6" data-original="#c9f6b0" style="" class=""/></g></g><g fill="#9be69d"><g><path d="m375.775 187.44v105.484c0 8.434 6.852 15.264 15.287 15.233l.166-.001v-120.269c0-8.847-6.839-16.43-15.679-16.787-3.047-.123-5.915.592-8.4 1.927 5.133 2.759 8.626 8.177 8.626 14.413z" fill="#fffce6" data-original="#000000" style="" class=""/><path d="m422.887 308.081c-.031 0-.063 0-.094 0-4.621.026-9.384.049-14.026.067 8.366.677 14.971 7.644 15.018 16.195.05 9.032-7.23 16.394-16.262 16.445-10.346.057-.281.087 15.453 0 9.032-.051 16.312-7.413 16.262-16.445-.05-9.001-7.362-16.262-16.351-16.262z" fill="#fffce6" data-original="#000000" style="" class=""/></g><g><path d="m262.786 187.44v105.484c0 8.434 6.852 15.264 15.287 15.233l.166-.001v-120.269c0-8.847-6.839-16.43-15.68-16.787-3.047-.123-5.915.592-8.4 1.927 5.135 2.759 8.627 8.177 8.627 14.413z" fill="#fffce6" data-original="#000000" style="" class=""/><path d="m309.898 308.081c-.031 0-.063 0-.094 0-4.621.026-9.384.049-14.026.067 8.366.677 14.971 7.644 15.018 16.195.05 9.032-7.23 16.394-16.262 16.445-10.346.057-.281.087 15.453 0 9.032-.051 16.312-7.413 16.262-16.445-.049-9.001-7.362-16.262-16.351-16.262z" fill="#fffce6" data-original="#000000" style="" class=""/></g></g></g></g></g></svg>
