<?xml version="1.0"?>
<svg xmlns="http://www.w3.org/2000/svg" xmlns:xlink="http://www.w3.org/1999/xlink" xmlns:svgjs="http://svgjs.com/svgjs" version="1.1" width="512" height="512" x="0" y="0" viewBox="0 0 60 56" style="enable-background:new 0 0 512 512" xml:space="preserve" class=""><g><g xmlns="http://www.w3.org/2000/svg" id="Page-1" fill="none" fill-rule="evenodd"><g id="041---Add-Photos"><path id="Path" d="m35 8v17.14c-1.7237022.9962281-3.2464186 2.3052895-4.49 3.86h-26.51c-1.65685425 0-3-1.3431458-3-3v-18c0-1.65685425 1.34314575-3 3-3h5.65c.5839791-.00288488 1.1381922-.25811459 1.52-.7l2.23-2.6c.3818078-.44188541.9360209-.69711512 1.52-.7h6.16c.5839791.00288488 1.1381922.25811459 1.52.7l2.23 2.6c.3818078.44188541.9360209.69711512 1.52.7h5.65c1.6568542 0 3 1.34314575 3 3z" fill="#c6d8fb" data-original="#c6d8fb" style="" class=""/><path id="Path" d="m21.83 4.3c.3818078.44188541.9360209.69711512 1.52.7h3c-.5839791-.00288488-1.1381922-.25811459-1.52-.7l-2.23-2.6c-.3818078-.44188541-.9360209-.69711512-1.52-.7h-3c.5839791.00288488 1.1381922.25811459 1.52.7z" fill="#a3cdd9" data-original="#a4c3fd" style="" class=""/><path id="Path" d="m32 5h-3c1.6568542 0 3 1.34314575 3 3v17.14c-1.7237022.9962281-3.2464186 2.3052895-4.49 3.86h3c1.2435814-1.5547105 2.7662978-2.8637719 4.49-3.86v-17.14c0-1.65685425-1.3431458-3-3-3z" fill="#a3cdd9" data-original="#a4c3fd" style="" class=""/><circle id="Oval" cx="18" cy="16" fill="#e8edfc" r="9" data-original="#e8edfc" style="" class=""/><circle id="Oval" cx="18" cy="16" fill="#c6d8fb" r="5" data-original="#c6d8fb" style="" class=""/><path id="Path" d="m18 11c-.5100781.007121-1.0160138.0927928-1.5.254 2.0807519.6438254 3.4994946 2.5679184 3.4994946 4.746s-1.4187427 4.1021746-3.4994946 4.746c1.8757024.5955702 3.9262648.0330725 5.2355561-1.4361857 1.3092914-1.4692582 1.6327423-3.5708265.8258444-5.3657859s-2.5934199-2.9480201-4.5614005-2.9440284z" fill="#a3cdd9" data-original="#a4c3fd" style="" class=""/><path id="Path" d="m59 39c0 8.836556-7.163444 16-16 16s-16-7.163444-16-16 7.163444-16 16-16 16 7.163444 16 16z" fill="#e8edfc" data-original="#e8edfc" style="" class=""/><path id="Path" d="m43 23c-.5 0-1 .031-1.486.076 8.213651.7801282 14.4862352 7.6797544 14.4826083 15.9303695-.0036269 8.250615-6.2822746 15.1447239-14.4966083 15.9176305.494.046.994.076 1.5.076 8.836556 0 16-7.163444 16-16s-7.163444-16-16-16z" fill="#a3cdd9" data-original="#cad9fc" style="" class=""/><path id="Path" d="m54 39c0 1.1045695-.8954305 2-2 2h-7v7c0 1.1045695-.8954305 2-2 2s-2-.8954305-2-2v-7h-7c-1.1045695 0-2-.8954305-2-2s.8954305-2 2-2h7v-7c0-1.1045695.8954305-2 2-2s2 .8954305 2 2v7h7c1.1045695 0 2 .8954305 2 2z" fill="#ffffff" data-original="#ffffff" style="" class=""/><path id="Path" d="m14.17 4.3 2.23-2.6c.3818078-.44188541.9360209-.69711512 1.52-.7h-3c-.5839791.00288488-1.1381922.25811459-1.52.7l-2.23 2.6c-.3818078.44188541-.9360209.69711512-1.52.7h3c.5839791-.00288488 1.1381922-.25811459 1.52-.7z" fill="#ffffff" data-original="#ffffff" style="" class=""/><path id="Path" d="m4 26v-18c0-1.65685425 1.34314575-3 3-3h-3c-1.65685425 0-3 1.34314575-3 3v18c0 1.6568542 1.34314575 3 3 3h3c-1.65685425 0-3-1.3431458-3-3z" fill="#ffffff" data-original="#ffffff" style="" class=""/><path id="Rectangle" d="m0 8h2v8h-2z" fill="#ffffff" data-original="#ffffff" style="" class=""/><g fill="#428dff"><circle id="Oval" cx="1" cy="12" r="1" fill="#506ad4" data-original="#428dff" style="" class=""/><path id="Shape" d="m28 16c0-5.5228475-4.4771525-10-10-10s-10 4.4771525-10 10 4.4771525 10 10 10c5.5203344-.0060624 9.9939376-4.4796656 10-10zm-18 0c0-4.418278 3.581722-8 8-8s8 3.581722 8 8-3.581722 8-8 8c-4.4162219-.0049599-7.9950401-3.5837781-8-8z" fill-rule="nonzero" fill="#506ad4" data-original="#428dff" style="" class=""/><path id="Shape" d="m24 16c0-3.3137085-2.6862915-6-6-6s-6 2.6862915-6 6 2.6862915 6 6 6c3.3123376-.0033074 5.9966926-2.6876624 6-6zm-10 0c0-2.209139 1.790861-4 4-4s4 1.790861 4 4-1.790861 4-4 4-4-1.790861-4-4z" fill-rule="nonzero" fill="#506ad4" data-original="#428dff" style="" class=""/><path id="Shape" d="m43 22c-2.4156512.0018705-4.8027565.5222594-7 1.526v-15.526c0-2.209139-1.790861-4-4-4h-5.65c-.2924532-.00257079-.569674-.13079906-.761-.352l-2.232-2.6c-.5703615-.66399837-1.4016691-1.04661164-2.277-1.048h-6.16c-.876102.00145722-1.708123.38442783-2.279 1.049l-2.228 2.6c-.1922091.22103205-.47009228.34886562-.763.351h-5.65c-2.209139 0-4 1.790861-4 4 0 .55228475.44771525 1 1 1s1-.44771525 1-1c0-1.1045695.8954305-2 2-2h5.65c.876102-.00145722 1.708123-.38442783 2.279-1.049l2.228-2.6c.1922091-.22103205.4700923-.34886562.763-.351h6.16c.2924532.00257079.569674.13079906.761.352l2.232 2.6c.5703615.66399837 1.4016691 1.04661164 2.277 1.048h5.65c1.1045695 0 2 .8954305 2 2v16.6c-1.4782791.9260057-2.8062894 2.0725864-3.938 3.4h-26.062c-1.1045695 0-2-.8954305-2-2v-10c0-.5522847-.44771525-1-1-1s-1 .4477153-1 1v10c0 2.209139 1.790861 4 4 4h24.6c-4.094582 6.5695559-3.2284717 15.0767106 2.1060638 20.6862915 5.3345355 5.609581 13.7874442 6.9019284 20.5543852 3.1425167s10.1353526-11.6191592 8.190746-19.112034c-1.9446066-7.4928747-8.7100948-12.7225973-16.451195-12.7167742zm0 32c-8.2842712 0-15-6.7157288-15-15s6.7157288-15 15-15 15 6.7157288 15 15c-.0093685 8.2803876-6.7196124 14.9906315-15 15z" fill-rule="nonzero" fill="#506ad4" data-original="#428dff" style="" class=""/><path id="Shape" d="m46 36v-6c0-1.6568542-1.3431458-3-3-3s-3 1.3431458-3 3v6h-6c-1.6568542 0-3 1.3431458-3 3s1.3431458 3 3 3h6v6c0 1.6568542 1.3431458 3 3 3s3-1.3431458 3-3v-6h6c1.6568542 0 3-1.3431458 3-3s-1.3431458-3-3-3zm7 3c0 .5522847-.4477153 1-1 1h-7c-.5522847 0-1 .4477153-1 1v7c0 .5522847-.4477153 1-1 1s-1-.4477153-1-1v-7c0-.5522847-.4477153-1-1-1h-7c-.5522847 0-1-.4477153-1-1s.4477153-1 1-1h7c.5522847 0 1-.4477153 1-1v-7c0-.5522847.4477153-1 1-1s1 .4477153 1 1v7c0 .5522847.4477153 1 1 1h7c.5522847 0 1 .4477153 1 1z" fill-rule="nonzero" fill="#506ad4" data-original="#428dff" style="" class=""/><circle id="Oval" cx="5" cy="9" r="1" fill="#506ad4" data-original="#428dff" style="" class=""/><circle id="Oval" cx="31" cy="9" r="1" fill="#506ad4" data-original="#428dff" style="" class=""/></g></g></g></g></svg>
