<?xml version="1.0"?>
<svg xmlns="http://www.w3.org/2000/svg" xmlns:xlink="http://www.w3.org/1999/xlink" xmlns:svgjs="http://svgjs.com/svgjs" version="1.1" width="512" height="512" x="0" y="0" viewBox="0 0 512 512" style="enable-background:new 0 0 512 512" xml:space="preserve" class=""><circle r="256" cx="256" cy="256" fill="#a3cdd9" shape="circle"/><g transform="matrix(0.7,0,0,0.7,76.80000000000001,76.80000000000001)"><g xmlns="http://www.w3.org/2000/svg"><path d="M64,400H40a8,8,0,0,0,0,16H64a8,8,0,0,0,0-16Z" fill="#fffce6" data-original="#000000" style="" class=""/><path d="M96,400H88a8,8,0,0,0,0,16h8a8,8,0,0,0,0-16Z" fill="#fffce6" data-original="#000000" style="" class=""/><path d="M472,168H456V104a32.042,32.042,0,0,0-32-32H88a32.036,32.036,0,0,0-32,32V248H40A32.036,32.036,0,0,0,8,280V408a32.036,32.036,0,0,0,32,32h80a32.042,32.042,0,0,0,32-32V384h69.75l-4,16H192a8,8,0,0,0-8,8v24a8,8,0,0,0,8,8H472a32.042,32.042,0,0,0,32-32V200A32.042,32.042,0,0,0,472,168ZM136,408a16.021,16.021,0,0,1-16,16H40a16.021,16.021,0,0,1-16-16V280a16.021,16.021,0,0,1,16-16H50.23l6.18,18.53A8,8,0,0,0,64,288H96a8,8,0,0,0,7.59-5.47L109.77,264H120a16.021,16.021,0,0,1,16,16ZM67.1,264H92.9l-2.67,8H69.77ZM152,368V344H296v24Zm144,16v16h-1.75l-4-16Zm-18.25,16h-43.5l4-16h35.5ZM200,424v-8h97.01a31.971,31.971,0,0,0,3.3,8Zm96-224V328H152V280a32.042,32.042,0,0,0-32-32H72V104A16.021,16.021,0,0,1,88,88H424a16.021,16.021,0,0,1,16,16v64H328A32.042,32.042,0,0,0,296,200ZM488,408a16.021,16.021,0,0,1-16,16H328a16.021,16.021,0,0,1-16-16V200a16.021,16.021,0,0,1,16-16H472a16.021,16.021,0,0,1,16,16Z" fill="#fffce6" data-original="#000000" style="" class=""/><path d="M472,192H328a8,8,0,0,0-8,8V384a8,8,0,0,0,8,8H472a8,8,0,0,0,8-8V200A8,8,0,0,0,472,192Zm-8,184H336V208H464Z" fill="#fffce6" data-original="#000000" style="" class=""/><circle cx="392" cy="408" r="8" fill="#fffce6" data-original="#000000" style="" class=""/></g></g></svg>
