<?xml version="1.0"?>
<svg xmlns="http://www.w3.org/2000/svg" xmlns:xlink="http://www.w3.org/1999/xlink" xmlns:svgjs="http://svgjs.com/svgjs" version="1.1" width="512" height="512" x="0" y="0" viewBox="0 0 512 512" style="enable-background:new 0 0 512 512" xml:space="preserve" class=""><circle r="256" cx="256" cy="256" fill="#a3cdd9" shape="circle" transform="matrix(1,0,0,1,0,0)"/><g transform="matrix(0.63,0,0,0.63,94.72,94.72)"><path xmlns="http://www.w3.org/2000/svg" d="m488.46875 224.453125h-88.695312v-81.195313h72.664062c12.972656 0 23.53125-10.554687 23.53125-23.53125v-96.195312c0-12.972656-10.558594-23.53125-23.53125-23.53125h-160.324219c-12.976562 0-23.53125 10.558594-23.53125 23.53125v40.597656h-49.128906v-24.566406c0-21.8125-17.75-39.5625-39.566406-39.5625h-160.324219c-21.8125 0-39.5625 17.75-39.5625 39.5625v448.90625c0 12.972656 10.558594 23.53125 23.53125 23.53125h192.386719c12.976562 0 23.53125-10.558594 23.53125-23.53125v-112.742188h33.097656v112.742188c0 12.976562 10.558594 23.53125 23.53125 23.53125h192.390625c12.972656 0 23.53125-10.558594 23.53125-23.53125v-240.484375c0-12.976563-10.558594-23.53125-23.53125-23.53125zm8.53125 23.53125v40.597656h-66.769531c1.035156-2.648437 1.609375-5.523437 1.609375-8.53125 0-12.976562-10.558594-23.535156-23.53125-23.535156-12.976563 0-23.535156 10.558594-23.535156 23.535156 0 3.007813.574218 5.882813 1.609374 8.53125h-18.671874v-24.566406c0-4.140625-3.359376-7.5-7.5-7.5h-48.097657c-4.140625 0-7.5 3.359375-7.5 7.5v24.566406h-17.0625v-40.597656c0-4.707031 3.828125-8.53125 8.53125-8.53125h192.386719c4.703125 0 8.53125 3.824219 8.53125 8.53125zm-97.226562 32.0625c0-4.703125 3.828124-8.53125 8.53125-8.53125 4.707031 0 8.535156 3.828125 8.535156 8.53125 0 4.707031-3.828125 8.53125-8.535156 8.53125-4.703126 0-8.53125-3.824219-8.53125-8.53125zm-80.160157 8.535156v-17.066406h33.097657v17.066406zm152.824219-160.324219h-24.566406v-65.160156h33.097656v56.628906c0 4.703126-3.828125 8.53125-8.53125 8.53125zm8.53125-104.726562v24.566406h-33.097656v-33.097656h24.5625c4.707031 0 8.535156 3.828125 8.535156 8.53125zm-177.386719 0c0-4.703125 3.828125-8.53125 8.53125-8.53125h120.757813v113.257812h-120.757813c-4.707031 0-8.53125-3.828124-8.53125-8.53125zm-288.582031 312.113281h16.546875c.285156 0 .515625.230469.515625.515625v56.113282c0 .285156-.230469.515624-.515625.515624h-16.546875zm0-136.273437h16.546875c.285156 0 .515625.230468.515625.515625v56.113281c0 .285156-.230469.515625-.515625.515625h-16.546875zm209.453125 289.097656c0 4.703125-3.828125 8.53125-8.53125 8.53125h-192.390625c-4.703125 0-8.53125-3.828125-8.53125-8.53125v-80.679688h16.546875c8.558594 0 15.515625-6.957031 15.515625-15.515624v-56.113282c0-8.554687-6.957031-15.515625-15.515625-15.515625h-16.546875v-17.0625h168.855469c4.140625 0 7.5-3.359375 7.5-7.5s-3.359375-7.5-7.5-7.5h-168.855469v-17.0625h16.546875c8.558594 0 15.515625-6.960937 15.515625-15.515625v-56.113281c0-8.558594-6.957031-15.519531-15.515625-15.519531h-16.546875v-144.808594c0-13.542969 11.019531-24.5625 24.5625-24.5625h160.324219c13.546875 0 24.5625 11.019531 24.5625 24.5625v249.015625h-8.527344c-4.140625 0-7.5 3.359375-7.5 7.5 0 4.144531 3.359375 7.5 7.5 7.5h8.527344v184.890625zm15-127.742188v-281.597656h49.128906v40.597656c0 12.976563 10.554688 23.53125 23.53125 23.53125h72.660157v81.195313h-88.691407c-12.976562 0-23.53125 10.554687-23.53125 23.53125v112.742187zm249.015625 136.273438h-192.386719c-4.707031 0-8.53125-3.828125-8.53125-8.53125v-184.886719h209.449219v184.886719c0 4.703125-3.828125 8.53125-8.53125 8.53125zm0 0" fill="#fffce6" data-original="#000000" style="" class=""/><path xmlns="http://www.w3.org/2000/svg" d="m135.757812 64.128906h-32.066406c-8.554687 0-15.515625 6.960938-15.515625 15.515625v16.03125c0 8.558594 6.960938 15.515625 15.515625 15.515625h32.066406c8.554688 0 15.515626-6.957031 15.515626-15.515625v-16.03125c0-8.554687-6.960938-15.515625-15.515626-15.515625zm.515626 31.546875c0 .285157-.230469.515625-.515626.515625h-32.066406c-.285156 0-.515625-.230468-.515625-.515625v-16.03125c0-.285156.230469-.515625.515625-.515625h32.066406c.285157 0 .515626.230469.515626.515625zm0 0" fill="#fffce6" data-original="#000000" style="" class=""/><path xmlns="http://www.w3.org/2000/svg" d="m448.386719 271.515625h24.046875c4.144531 0 7.5-3.359375 7.5-7.5s-3.355469-7.5-7.5-7.5h-24.046875c-4.140625 0-7.5 3.359375-7.5 7.5s3.359375 7.5 7.5 7.5zm0 0" fill="#fffce6" data-original="#000000" style="" class=""/><path xmlns="http://www.w3.org/2000/svg" d="m392.273438 328.660156c-39.496094 0-71.628907 32.132813-71.628907 71.628906 0 39.496094 32.132813 71.628907 71.628907 71.628907 39.496093 0 71.628906-32.132813 71.628906-71.628907 0-39.496093-32.132813-71.628906-71.628906-71.628906zm0 128.257813c-31.226563 0-56.628907-25.402344-56.628907-56.628907 0-31.226562 25.40625-56.628906 56.628907-56.628906 31.226562 0 56.628906 25.40625 56.628906 56.628906 0 31.226563-25.402344 56.628907-56.628906 56.628907zm0 0" fill="#fffce6" data-original="#000000" style="" class=""/><path xmlns="http://www.w3.org/2000/svg" d="m421.453125 385c-4.011719 1.035156-6.425781 5.121094-5.390625 9.132812.515625 2 .777344 4.070313.777344 6.15625 0 13.546876-11.019532 24.566407-24.566406 24.566407-13.542969 0-24.5625-11.019531-24.5625-24.566407 0-13.542968 11.019531-24.5625 24.5625-24.5625 2.085937 0 4.15625.257813 6.148437.773438 4.011719 1.03125 8.101563-1.382812 9.132813-5.394531 1.035156-4.007813-1.378907-8.097657-5.390626-9.132813-3.214843-.828125-6.542968-1.246094-9.890624-1.246094-21.816407 0-39.5625 17.746094-39.5625 39.5625 0 21.816407 17.746093 39.566407 39.5625 39.566407 21.816406 0 39.566406-17.75 39.566406-39.566407 0-3.347656-.421875-6.679687-1.25-9.898437-1.035156-4.011719-5.128906-6.421875-9.136719-5.390625zm0 0" fill="#fffce6" data-original="#000000" style="" class=""/><path xmlns="http://www.w3.org/2000/svg" d="m328.144531 111.191406h80.164063c4.140625 0 7.5-3.355468 7.5-7.5v-64.128906c0-4.140625-3.359375-7.5-7.5-7.5h-16.03125c-4.140625 0-7.5 3.359375-7.5 7.5 0 4.144531 3.359375 7.5 7.5 7.5h8.53125v49.128906h-65.164063v-49.128906h24.566407c4.140624 0 7.5-3.355469 7.5-7.5 0-4.140625-3.359376-7.5-7.5-7.5h-32.066407c-4.140625 0-7.5 3.359375-7.5 7.5v64.128906c0 4.144532 3.359375 7.5 7.5 7.5zm0 0" fill="#fffce6" data-original="#000000" style="" class=""/></g></svg>
