<svg xmlns="http://www.w3.org/2000/svg" xmlns:xlink="http://www.w3.org/1999/xlink" width="310.279" height="179.039" viewBox="0 0 310.279 179.039">
  <defs>
    <linearGradient id="linear-gradient" x1="0.5" y1="-0.227" x2="0.5" y2="0.708" gradientUnits="objectBoundingBox">
      <stop offset="0" stop-color="#e5e5e5"/>
      <stop offset="0.603" stop-color="#eeeeef"/>
      <stop offset="1" stop-color="#eef2f9"/>
    </linearGradient>
    <linearGradient id="linear-gradient-2" x2="1" y2="1" gradientUnits="objectBoundingBox">
      <stop offset="0" stop-color="#ffbd69"/>
      <stop offset="1" stop-color="#ff6363"/>
    </linearGradient>
  </defs>
  <g id="no_internet" transform="translate(-951.928 -488.041)">
    <path id="Path_5741" data-name="Path 5741" d="M1764.189,780.145a5.2,5.2,0,0,1-3.825-1.671,84.386,84.386,0,0,0-24.017-18.123,5.214,5.214,0,1,1,4.684-9.317,94.691,94.691,0,0,1,26.982,20.353,5.213,5.213,0,0,1-3.824,8.757Zm-127.255-1.68a84.112,84.112,0,0,1,61.71-27.1,79.309,79.309,0,0,1,19.666,2.393,5.214,5.214,0,0,0,2.587-10.1,89.919,89.919,0,0,0-22.253-2.719,94.558,94.558,0,0,0-69.378,30.466,5.212,5.212,0,0,0,7.668,7.061Zm17.482,18.638a58.233,58.233,0,0,1,42.4-20.241,5.223,5.223,0,0,0,5.068-5.363,5.292,5.292,0,0,0-5.364-5.065,68.735,68.735,0,0,0-50,23.867,5.214,5.214,0,1,0,7.9,6.8Zm95.822.543a5.221,5.221,0,0,0,.534-7.357,68.588,68.588,0,0,0-29.809-20.139,5.215,5.215,0,0,0-3.341,9.88,58.072,58.072,0,0,1,25.258,17.082,5.216,5.216,0,0,0,7.357.534Zm-17.752,19.2a5.216,5.216,0,0,0,1.137-7.287,43.467,43.467,0,0,0-34.978-17.783,16.285,16.285,0,0,0-1.936.092,5.179,5.179,0,0,0-4.51,5.758,5.27,5.27,0,0,0,5.77,4.594,4.83,4.83,0,0,1,.677-.015,32.993,32.993,0,0,1,26.556,13.5,5.213,5.213,0,0,0,7.284,1.135Zm-15.912,18.32a17.93,17.93,0,1,0-17.93,17.93,17.93,17.93,0,0,0,17.93-17.93Zm-10.429,0a7.5,7.5,0,1,1-7.5-7.5,7.5,7.5,0,0,1,7.5,7.5Zm-55.278-9.055,87.99-89.282a5.213,5.213,0,1,0-7.423-7.323l-87.99,89.285a5.213,5.213,0,1,0,7.423,7.32Z" transform="translate(-627.503 -239.913)" fill="#455a64" opacity="0.22"/>
    <g id="Group_4865" data-name="Group 4865" transform="translate(951.927 602.922)">
      <path id="Path_5726" data-name="Path 5726" d="M1751.219,907.226a1.682,1.682,0,0,0-3.324.52c.241,1.567.549,6.475-1.145,8.451a2.261,2.261,0,0,1-1.366.785l.154-9.348a2.432,2.432,0,1,0-4.862.02l.439,17.741a2.269,2.269,0,0,1-1.423-.793c-1.694-1.975-1.386-6.883-1.145-8.451a1.682,1.682,0,1,0-3.324-.52c-.121.772-1.093,7.645,1.911,11.155a5.7,5.7,0,0,0,4.065,2l.191,7.722h3.671l.266-16.133a5.684,5.684,0,0,0,3.979-1.992C1752.312,914.872,1751.339,908,1751.219,907.226Z" transform="translate(-1519.302 -905.126)" fill="#bdbdbd"/>
      <path id="Path_5727" data-name="Path 5727" d="M1197.658,964a1.072,1.072,0,1,0-2.119.331c.154,1,.35,4.128-.73,5.387a1.442,1.442,0,0,1-.87.5l.1-5.959a1.55,1.55,0,1,0-3.1.013l.28,11.309a1.445,1.445,0,0,1-.907-.505c-1.08-1.259-.884-4.388-.73-5.387a1.072,1.072,0,0,0-2.119-.331c-.077.492-.7,4.874,1.218,7.111a3.63,3.63,0,0,0,2.591,1.274l.122,4.923h2.34l.17-10.285a3.625,3.625,0,0,0,2.537-1.27C1198.355,968.876,1197.736,964.5,1197.658,964Z" transform="translate(-1122.475 -946.864)" fill="#bdbdbd"/>
      <path id="Path_5742" data-name="Path 5742" d="M153.326,0C238.006,0,310.28,42.856,310.28,42.856H0S68.646,0,153.326,0Z" transform="translate(0 21.303)" fill="url(#linear-gradient)"/>
    </g>
    <g id="Group_4866" data-name="Group 4866" transform="translate(1084.92 507.009)">
      <path id="Path_5728" data-name="Path 5728" d="M1567.806,948.759s-.07,4.124,0,4.537-1.614,2.83-2.3,2.723a7.541,7.541,0,0,1-2.264-.566c-.2-.229-.111-.77-.041-1.265s.586-4.985.586-5.216S1567.041,948.132,1567.806,948.759Z" transform="translate(-1527.768 -840.632)" fill="#ffbe9d"/>
      <path id="Path_5729" data-name="Path 5729" d="M1563.856,964.228c-.861.465-1.345,1.881-1.467,1.9s-.351-.017-.351-.157.035-.612-.122-.612-.333.77-.367,1.889-.433,3.789,0,4.129c.272.213,2.764,1.522,2.834,1.7s-.053,1.4.157,1.592.7.665,1.084.683a16.711,16.711,0,0,0,3.657,0,8.048,8.048,0,0,0,2.414-.892,12.869,12.869,0,0,0-.595-3.481c-.332-.367-2.729-3.656-2.922-3.954a3.392,3.392,0,0,1-.333-1.435,1.849,1.849,0,0,0-1.087-1.556A4.939,4.939,0,0,0,1563.856,964.228Z" transform="translate(-1526.487 -851.801)" fill="url(#linear-gradient-2)"/>
      <path id="Path_5730" data-name="Path 5730" d="M1488.7,957.419s0,2.4-.069,2.815,1.615,2.83,2.3,2.723a7.546,7.546,0,0,0,2.264-.566c.2-.229.112-.771.04-1.265s-.515-3.263-.515-3.493S1489.461,956.792,1488.7,957.419Z" transform="translate(-1473.795 -846.907)" fill="#ffbe9d"/>
      <path id="Path_5731" data-name="Path 5731" d="M1487.838,764.174a123.729,123.729,0,0,0-2.817,21.58c0,5.9-.59,20.939-.59,23.225s-.246,7.957.344,8.252a5.9,5.9,0,0,0,3.839.886,2.527,2.527,0,0,0,2.412-2.56c.049-1.083.492-8.86.935-11.863s2.018-8.794,3.052-12.519,3.446-11.216,4.086-11.187,4.626,16.439,4.958,17.369.965,14.143,1.006,15.253,0,2.177.7,2.629a12.258,12.258,0,0,0,3.942,1.643c1.109.083,1.848-1.684,2.053-2.218s.569-18.208.438-23.057.252-13.89.028-16.838a84.5,84.5,0,0,0-1.4-10.6C1510.36,762.845,1487.838,764.174,1487.838,764.174Z" transform="translate(-1470.718 -706.659)" fill="#263238"/>
      <path id="Path_5732" data-name="Path 5732" d="M1459.459,575.166c.93-1.033,5.27-5.925,6.132-6.1s2.957-.552,3.425-1.033,2.444-6.689,1.662-7.818-3.8-.808-4.718,1.113-.869,2.928-2.379,4.255-8.088,6.706-8.7,7.249.6,3.183,1.563,3.641S1459.459,575.166,1459.459,575.166Z" transform="translate(-1449.223 -558.835)" fill="#ffbe9d"/>
      <path id="Path_5733" data-name="Path 5733" d="M1457.014,610.195c-2.218.465-5.9.859-7.118,1.252s-6.009,2.075-5.973,1.359,2.218-3.862,1.824-4.185-2.754-.715-3.147-1.216-.93-1.68-1.467-1.538-6.757,5.937-6.331,8.155c1,5.229,15.7,9.04,16.04,11.321s-1.14,24.149-.335,24.954,9.324,3.891,13.617,4.159,11.824-1.227,12.235-2.357-2.095-22.858-1.8-22.858.373,6.84,3.643,8.609a5.74,5.74,0,0,0,5.7-.68c.568-.644-2.029-9.737-3.2-12.8s-2.3-9.4-4.957-11.652-6.409-1.866-7.7-2.395-5.625-.15-6.717-.264A39.991,39.991,0,0,0,1457.014,610.195Z" transform="translate(-1434.781 -592.374)" fill="url(#linear-gradient-2)"/>
      <path id="Path_5734" data-name="Path 5734" d="M1604.051,695.343s-3.823,1.156-4.121,1.553-.828,1.988,0,2.651,1.737,1.159,2.72.394,1.879-1.794,2.447-1.924,2.267.114,2.98-.166,2.066-5.688,1.52-6.015S1604.051,695.343,1604.051,695.343Z" transform="translate(-1554.122 -654.659)" fill="#ffbe9d"/>
      <path id="Path_5735" data-name="Path 5735" d="M1504.448,574c-1.234-.256-3.616-2.585-3.834-4.952-.213-2.307-1.909-8.787,3.995-11.218,5.539-2.282,11.239.065,12.058,2.879.765,2.627-5.737,2.745-8.121,4.456s-2.546,2.847-3.141,2.576S1504.448,574,1504.448,574Z" transform="translate(-1482.201 -556.909)" fill="#263238"/>
      <path id="Path_5736" data-name="Path 5736" d="M1514.8,599.323c-.078,1.056-.344,6.165.1,6.917a3.953,3.953,0,0,0,3.959,2.61c2.831-.089,4.667-2.92,4.822-3.251s-.177-4.424-.177-5.109-3.8-2.3-5.33-2.257S1514.872,598.329,1514.8,599.323Z" transform="translate(-1492.651 -586.85)" fill="#f7b796"/>
      <path id="Path_5737" data-name="Path 5737" d="M1509.256,580.473c.319-.009-.058,1.938.521,2.574s3.1,3.955,5.76,3.63c2.3-.28,1.973-2.265,2.305-3.9.3-1.484,1.259-1.612,1.6-5.486.13-1.5.839-3.847-.463-4.281s-6.19-1.591-7.4,0-1.331,5.409-1.967,4.917-1.967-2.892-2.748-1.591S1507.551,580.523,1509.256,580.473Z" transform="translate(-1486.849 -567.986)" fill="#ffbe9d"/>
      <path id="Path_5738" data-name="Path 5738" d="M3.011.331.064,8.262C-.089,8.674.05,9.28.3,9.271l5.448-.2c.091,0,.176-.1.229-.251L8.76.9C8.892.53,8.764,0,8.545,0L3.239.095C3.15.1,3.067.183,3.011.331Z" transform="translate(48.049 33.844) rotate(0.974)" fill="url(#linear-gradient-2)"/>
      <path id="Path_5739" data-name="Path 5739" d="M1619.506,688.506c-.754.075-1.85.5-1.85.895s.88.5,1.122.54.561.113.47.234-.273.727-.758.622a29.867,29.867,0,0,0-3.018-.137c-.41,0-.895.288-.925.592s-.121.364-.364.379-.683.243-.683.637.974.749.974.889a17.427,17.427,0,0,0,2.286,1.524c.375.217,1.075.769,1.469.769a1.193,1.193,0,0,0,1.1-.917c.049-.542.827-.936.838-1.2s-.247-.463-.217-.631.71-.4.71-.828a4.819,4.819,0,0,0-.305-1.173c-.039-.177-.2-.562-.039-.611s.709-.562.611-1.035S1619.854,688.471,1619.506,688.506Z" transform="translate(-1564.275 -652.256)" fill="#ffbe9d"/>
      <path id="Path_5740" data-name="Path 5740" d="M1477.692,966.631c.861.465,1.344,1.881,1.467,1.9s.351-.018.351-.157-.035-.612.123-.612.332.77.367,1.89.433,3.789,0,4.129c-.272.213-2.764,1.522-2.834,1.7s.052,1.4-.157,1.592-.7.665-1.085.682a16.711,16.711,0,0,1-3.656,0,8.048,8.048,0,0,1-2.414-.892,12.851,12.851,0,0,1,.6-3.481c.333-.367,2.729-3.657,2.922-3.954a3.391,3.391,0,0,0,.332-1.434,1.849,1.849,0,0,1,1.087-1.557A4.929,4.929,0,0,1,1477.692,966.631Z" transform="translate(-1460.192 -853.541)" fill="url(#linear-gradient-2)"/>
    </g>
  </g>
</svg>
