<?xml version="1.0"?>
<svg xmlns="http://www.w3.org/2000/svg" xmlns:xlink="http://www.w3.org/1999/xlink" xmlns:svgjs="http://svgjs.com/svgjs" version="1.1" width="512" height="512" x="0" y="0" viewBox="0 0 512 512" style="enable-background:new 0 0 512 512" xml:space="preserve" class=""><circle r="256" cx="256" cy="256" fill="#a3cdd9" shape="circle"/><g transform="matrix(0.7,0,0,0.7,73.29023437500001,76.80000000000001)"><path xmlns="http://www.w3.org/2000/svg" d="m448.496094 0h-155.128906c-22.113282 0-40.105469 17.988281-40.105469 40.105469v144.085937c0 22.113282 17.992187 40.101563 40.105469 40.101563h155.128906c22.113281 0 40.105468-17.988281 40.105468-40.101563v-144.085937c0-22.117188-17.992187-40.105469-40.105468-40.105469zm20.105468 184.1875c0 11.085938-9.019531 20.105469-20.105468 20.105469h-155.128906c-11.085938 0-20.105469-9.019531-20.105469-20.105469v-144.082031c0-11.085938 9.019531-20.105469 20.105469-20.105469h155.128906c11.085937 0 20.105468 9.019531 20.105468 20.105469zm0 0" fill="#fffce6" data-original="#000000" style=""/><path xmlns="http://www.w3.org/2000/svg" d="m370.929688 41.417969c-39 0-70.726563 31.730469-70.726563 70.730469s31.726563 70.726562 70.726563 70.726562 70.730468-31.726562 70.730468-70.726562-31.730468-70.730469-70.730468-70.730469zm0 121.457031c-27.96875 0-50.726563-22.757812-50.726563-50.730469 0-27.96875 22.757813-50.726562 50.726563-50.726562 27.972656 0 50.730468 22.757812 50.730468 50.726562 0 27.972657-22.757812 50.730469-50.730468 50.730469zm0 0" fill="#fffce6" data-original="#000000" style=""/><path xmlns="http://www.w3.org/2000/svg" d="m347.675781 91.871094c-5.523437 0-10 4.476562-10 10v20.550781c0 5.523437 4.476563 10 10 10 5.523438 0 10-4.476563 10-10v-20.550781c0-5.523438-4.476562-10-10-10zm0 0" fill="#fffce6" data-original="#000000" style=""/><path xmlns="http://www.w3.org/2000/svg" d="m394.1875 91.871094c-5.523438 0-10 4.476562-10 10v20.550781c0 5.523437 4.476562 10 10 10s10-4.476563 10-10v-20.550781c0-5.523438-4.476562-10-10-10zm0 0" fill="#fffce6" data-original="#000000" style=""/><path xmlns="http://www.w3.org/2000/svg" d="m415.320312 492h-121.550781c-15.882812 0-28.804687-12.921875-28.804687-28.804688v-81.023437c0-23.609375-19.207032-42.816406-42.816406-42.816406-23.609376 0-42.816407 19.207031-42.816407 42.816406v80.765625c0 16.023438-13.039062 29.0625-29.0625 29.0625-16.027343 0-29.066406-13.039062-29.066406-29.0625v-83.390625c12.464844-.597656 22.417969-10.925781 22.417969-23.535156v-10.625h.484375c30.453125 0 55.226562-24.773438 55.226562-55.226563v-61.773437h12.234375c5.976563 0 10.839844-4.863281 10.839844-10.84375v-18.996094c0-15.316406-12.460938-27.777344-27.777344-27.777344h-19.089844v-73.835937c0-14.3125-11.644531-25.957032-25.957031-25.957032s-25.960937 11.644532-25.960937 25.957032v73.835937h-24.835938v-73.835937c0-14.3125-11.644531-25.957032-25.960937-25.957032-14.3125 0-25.957031 11.644532-25.957031 25.957032v73.835937h-19.089844c-15.316406 0-27.777344 12.460938-27.777344 27.777344v18.996094c0 5.980469 4.863281 10.84375 10.84375 10.84375h12.230469v61.773437c0 30.453125 24.777343 55.226563 55.226562 55.226563h.484375v10.625c0 12.609375 9.957032 22.9375 22.417969 23.535156v83.390625c0 27.054688 22.011719 49.0625 49.066406 49.0625 27.050781 0 49.0625-22.011719 49.0625-49.0625v-80.765625c0-12.582031 10.234375-22.816406 22.816407-22.816406 12.582031 0 22.816406 10.234375 22.816406 22.816406v81.023437c0 26.910157 21.894531 48.804688 48.804687 48.804688h121.550781c5.523438 0 10-4.476562 10-10s-4.476562-10-10-10zm-271.699218-395.066406c0-3.285156 2.675781-5.957032 5.960937-5.957032 3.285157 0 5.957031 2.671876 5.957031 5.957032v73.835937h-11.917968zm-76.753906 0c0-3.285156 2.671874-5.957032 5.957031-5.957032 3.285156 0 5.960937 2.671876 5.960937 5.957032v73.835937h-11.917968zm-23.792969 193.226562v-61.773437h53.558593c5.523438 0 10-4.480469 10-10 0-5.523438-4.476562-10-10-10h-76.632812v-9.839844c0-4.289063 3.488281-7.777344 7.777344-7.777344h166.855468c4.285157 0 7.773438 3.488281 7.773438 7.777344v9.839844h-25.773438c-5.523437 0-10 4.476562-10 10 0 5.519531 4.476563 10 10 10h2.699219v61.773437c0 19.425782-15.800781 35.226563-35.226562 35.226563h-65.804688c-19.421875 0-35.226562-15.800781-35.226562-35.226563zm55.710937 65.851563v-10.625h24.835938v10.625c0 1.964843-1.597656 3.5625-3.558594 3.5625h-17.71875c-1.960938-.003907-3.558594-1.597657-3.558594-3.5625zm0 0" fill="#fffce6" data-original="#000000" style=""/><path xmlns="http://www.w3.org/2000/svg" d="m136.632812 228.386719h.023438c5.523438 0 9.988281-4.480469 9.988281-10 0-5.523438-4.488281-10-10.011719-10-5.523437 0-10 4.476562-10 10 0 5.519531 4.476563 10 10 10zm0 0" fill="#fffce6" data-original="#000000" style=""/></g></svg>
