<?xml version="1.0"?>
<svg xmlns="http://www.w3.org/2000/svg" xmlns:xlink="http://www.w3.org/1999/xlink" xmlns:svgjs="http://svgjs.com/svgjs" version="1.1" width="512" height="512" x="0" y="0" viewBox="0 0 480.016 480.016" style="enable-background:new 0 0 512 512" xml:space="preserve" class=""><circle r="240.008" cx="240.008" cy="240.008" fill="#a3cdd9" shape="circle"/><g transform="matrix(0.7,0,0,0.7,67.00241759344937,42.00235519409182)">
<g xmlns="http://www.w3.org/2000/svg">
	<g>
		<path d="M261.342,279.612c0-0.002,0-0.003,0-0.005l-5.336-104c-0.217-4.255-3.731-7.593-7.992-7.592h-38.728    c-17.636-40.467-64.738-58.975-105.205-41.339c-18.506,8.065-33.274,22.834-41.339,41.339H24.014c-4.255-0.006-7.77,3.319-8,7.568    l-16,296c-0.239,4.412,3.144,8.182,7.556,8.42c0.148,0.008,0.296,0.012,0.444,0.012h208c4.418,0,8-3.582,8-8s-3.582-8-8-8H16.462    l1.296-24h158.256c4.418,0,8-3.582,8-8s-3.582-8-8-8H18.622l12.968-240h26.024c-1.07,5.266-1.606,10.626-1.6,16    c0.048,0.469,0.142,0.933,0.28,1.384c-12.55,4.264-19.268,17.894-15.005,30.445c4.264,12.55,17.894,19.268,30.445,15.004    c12.55-4.264,19.268-17.894,15.004-30.444c-2.399-7.061-7.943-12.606-15.004-15.005c0.138-0.451,0.232-0.915,0.28-1.384    c0.019-5.401,0.726-10.778,2.104-16H197.91c1.378,5.222,2.085,10.599,2.104,16c0.048,0.469,0.142,0.933,0.28,1.384    c-12.55,4.264-19.268,17.894-15.005,30.445c4.264,12.55,17.894,19.268,30.445,15.004c12.55-4.264,19.268-17.894,15.004-30.444    c-2.399-7.061-7.943-12.606-15.004-15.005c0.138-0.451,0.232-0.915,0.28-1.384c0.006-5.374-0.53-10.734-1.6-16h26l4.944,96.408    c0.271,4.392,4.003,7.762,8.4,7.584C258.17,287.784,261.566,284.025,261.342,279.612z M72.014,224.016c0,4.418-3.582,8-8,8    s-8-3.582-8-8s3.582-8,8-8S72.014,219.597,72.014,224.016z M80.67,168.016c11.418-19.776,32.508-31.971,55.344-32    c22.836,0.029,43.926,12.224,55.344,32H80.67z M216.014,224.016c0,4.418-3.582,8-8,8s-8-3.582-8-8s3.582-8,8-8    S216.014,219.597,216.014,224.016z" fill="#fbfdff" data-original="#000000" style="" class=""/>
	</g>
</g>
<g xmlns="http://www.w3.org/2000/svg">
	<g>
		<path d="M469.806,279.542c0-0.002,0-0.004,0-0.006L456.014,55.52c-0.262-4.223-3.768-7.512-8-7.504h-38.728    C391.65,7.548,344.548-10.96,304.081,6.676c-18.506,8.065-33.274,22.834-41.339,41.339h-38.728c-4.208-0.01-7.705,3.242-8,7.44    l-6.216,88c-0.32,4.407,2.994,8.238,7.4,8.558c0.011,0.001,0.021,0.002,0.032,0.002c4.392,0.258,8.186-3.039,8.544-7.424    l5.696-80.576h26.144c-1.07,5.266-1.606,10.626-1.6,16c0.048,0.469,0.142,0.933,0.28,1.384    c-12.55,4.264-19.268,17.894-15.004,30.445c4.264,12.55,17.894,19.268,30.444,15.004c12.55-4.264,19.268-17.894,15.004-30.444    c-2.399-7.061-7.943-12.606-15.004-15.005c0.138-0.451,0.232-0.915,0.28-1.384c0.019-5.401,0.726-10.778,2.104-16H397.91    c1.378,5.222,2.085,10.599,2.104,16c0.048,0.469,0.142,0.933,0.28,1.384c-12.55,4.264-19.268,17.894-15.004,30.445    c4.264,12.55,17.894,19.268,30.444,15.004c12.55-4.264,19.268-17.894,15.004-30.444c-2.399-7.061-7.943-12.606-15.004-15.005    c0.138-0.451,0.232-0.915,0.28-1.384c0.006-5.374-0.53-10.734-1.6-16h26.08l13.32,216.496c0.262,4.224,3.768,7.512,8,7.504h0.496    C466.72,287.746,470.076,283.952,469.806,279.542z M272.014,104.016c0,4.418-3.582,8-8,8s-8-3.582-8-8s3.582-8,8-8    S272.014,99.597,272.014,104.016z M280.67,48.016c11.418-19.776,32.508-31.971,55.344-32c22.836,0.029,43.926,12.224,55.344,32    H280.67z M416.014,104.016c0,4.418-3.582,8-8,8s-8-3.582-8-8s3.582-8,8-8S416.014,99.597,416.014,104.016z" fill="#fbfdff" data-original="#000000" style="" class=""/>
	</g>
</g>
<g xmlns="http://www.w3.org/2000/svg">
	<g>
		<path d="M472.014,304.016h-66.848c0.872-0.8,1.776-1.6,2.616-2.496c3.096-3.152,3.05-8.217-0.102-11.313s-8.217-3.05-11.313,0.102    c-0.065,0.067-0.13,0.134-0.193,0.203c-8.133,8.649-19.488,13.539-31.36,13.504h-4.8v-4.8c0.04-23.842,19.358-43.16,43.2-43.2h4.8    v4.8c-0.001,3.192-0.352,6.373-1.048,9.488c-0.959,4.314,1.762,8.589,6.076,9.548c4.314,0.959,8.589-1.762,9.548-6.076    c0.946-4.255,1.423-8.601,1.424-12.96v-12.8c0-4.418-3.582-8-8-8h-12.8c-21.126,0.025-40.637,11.305-51.2,29.6    c-10.563-18.295-30.074-29.575-51.2-29.6h-12.8c-4.418,0-8,3.582-8,8v12.8c0.014,16.397,6.851,32.049,18.872,43.2h-66.872    c-4.418,0-8,3.582-8,8v48c0,4.418,3.582,8,8,8h8v104c0,4.418,3.582,8,8,8h208c4.418,0,8-3.582,8-8v-104h8c4.418,0,8-3.582,8-8v-48    C480.014,307.597,476.432,304.016,472.014,304.016z M296.014,260.816v-4.8h4.8c23.842,0.04,43.16,19.358,43.2,43.2v4.8h-4.8    C315.371,303.976,296.053,284.658,296.014,260.816z M240.014,352.016v-32h72v32H240.014z M376.014,464.016h-48v-24    c0-4.418-3.582-8-8-8s-8,3.582-8,8v24h-56v-96h56v40c0,4.418,3.582,8,8,8s8-3.582,8-8v-40h48V464.016z M376.014,352.016h-48v-32    h36.8h11.2V352.016z M464.014,352.016h-24c-4.418,0-8,3.582-8,8s3.582,8,8,8h8v96h-56v-96h16c4.418,0,8-3.582,8-8s-3.582-8-8-8    h-16v-32h72V352.016z" fill="#fbfdff" data-original="#000000" style="" class=""/>
	</g>
</g>
<g xmlns="http://www.w3.org/2000/svg">
	<g>
		<path d="M216.014,424.016h-8c-4.418,0-8,3.582-8,8s3.582,8,8,8h8c4.418,0,8-3.582,8-8S220.432,424.016,216.014,424.016z" fill="#fbfdff" data-original="#000000" style="" class=""/>
	</g>
</g>
<g xmlns="http://www.w3.org/2000/svg">
</g>
<g xmlns="http://www.w3.org/2000/svg">
</g>
<g xmlns="http://www.w3.org/2000/svg">
</g>
<g xmlns="http://www.w3.org/2000/svg">
</g>
<g xmlns="http://www.w3.org/2000/svg">
</g>
<g xmlns="http://www.w3.org/2000/svg">
</g>
<g xmlns="http://www.w3.org/2000/svg">
</g>
<g xmlns="http://www.w3.org/2000/svg">
</g>
<g xmlns="http://www.w3.org/2000/svg">
</g>
<g xmlns="http://www.w3.org/2000/svg">
</g>
<g xmlns="http://www.w3.org/2000/svg">
</g>
<g xmlns="http://www.w3.org/2000/svg">
</g>
<g xmlns="http://www.w3.org/2000/svg">
</g>
<g xmlns="http://www.w3.org/2000/svg">
</g>
<g xmlns="http://www.w3.org/2000/svg">
</g>
</g></svg>
